<?xml version="1.0" standalone="no"?>
<!DOCTYPE svg PUBLIC "-//W3C//DTD SVG 20010904//EN"
 "http://www.w3.org/TR/2001/REC-SVG-20010904/DTD/svg10.dtd">
<svg version="1.0" xmlns="http://www.w3.org/2000/svg"
 width="824.000000pt" height="824.000000pt" viewBox="0 0 824.000000 824.000000"
 preserveAspectRatio="xMidYMid meet">
<metadata>
Created by potrace 1.14, written by Peter Selinger 2001-2017
</metadata>
<g transform="translate(0.000000,824.000000) scale(0.100000,-0.100000)"
fill="#000000" stroke="none">
<path d="M4292 6608 c-5 -7 -13 -27 -16 -45 -4 -17 -13 -37 -21 -43 -7 -6 -16
-29 -20 -50 -4 -21 -13 -44 -21 -51 -8 -6 -14 -22 -14 -34 0 -12 -9 -33 -19
-46 -10 -14 -21 -35 -23 -48 -4 -34 -32 -49 -58 -33 -12 7 -24 10 -29 8 -4 -3
-44 -1 -87 5 -142 17 -188 19 -211 7 -17 -8 -26 -8 -36 0 -11 9 -22 9 -47 1
-24 -9 -38 -9 -50 -1 -10 6 -27 8 -39 5 -11 -3 -37 2 -56 11 -36 17 -99 14
-111 -6 -3 -5 -14 -6 -23 -3 -10 3 -45 -1 -77 -10 -36 -9 -104 -15 -179 -15
-109 -1 -127 -3 -194 -30 -67 -26 -78 -28 -113 -17 -21 6 -38 17 -38 23 0 6
-6 17 -14 23 -7 6 -16 30 -19 52 -3 23 -15 50 -26 60 -11 11 -25 36 -31 57 -5
22 -19 47 -30 57 -11 10 -20 28 -20 40 0 38 -71 49 -110 17 -26 -21 -50 -83
-50 -129 0 -17 -5 -35 -10 -38 -6 -4 -10 -25 -10 -48 1 -88 -8 -189 -18 -199
-5 -5 -70 -12 -143 -14 -175 -5 -241 -10 -314 -22 -33 -5 -71 -10 -85 -10 -50
-2 -95 -15 -117 -34 -13 -13 -29 -18 -39 -14 -9 4 -32 -2 -51 -14 -19 -11 -42
-20 -51 -20 -24 0 -171 -56 -191 -72 -9 -8 -33 -23 -53 -33 -21 -11 -38 -23
-38 -27 0 -4 -22 -18 -48 -31 -26 -13 -74 -40 -105 -61 -44 -29 -57 -44 -57
-63 0 -25 -40 -115 -64 -143 -18 -20 -28 -63 -32 -135 -1 -33 -6 -98 -9 -145
-3 -47 -7 -155 -10 -240 -2 -85 -8 -184 -14 -220 -12 -77 -7 -301 8 -329 6
-11 10 -46 9 -78 -1 -32 1 -87 5 -123 8 -68 15 -135 17 -160 3 -36 54 -186 66
-196 8 -6 14 -23 14 -38 0 -33 35 -108 61 -132 10 -9 19 -29 19 -44 0 -15 13
-44 30 -65 17 -21 30 -44 30 -51 0 -18 110 -140 154 -172 34 -24 36 -28 31
-66 -4 -24 1 -79 11 -131 10 -50 16 -122 15 -162 -1 -52 3 -83 17 -115 10 -23
27 -68 37 -98 10 -30 26 -71 37 -90 13 -23 18 -45 15 -66 -3 -17 -2 -36 3 -40
4 -5 15 -32 24 -61 10 -28 27 -64 38 -78 25 -32 29 -68 27 -240 -2 -188 -2
-184 5 -250 4 -33 11 -94 15 -135 13 -120 39 -196 76 -224 45 -35 203 -75 303
-78 77 -2 89 1 152 33 40 20 72 42 76 54 3 11 12 27 19 35 13 16 24 57 30 113
2 17 9 48 16 67 6 19 13 40 15 47 2 10 95 11 406 7 222 -3 456 -6 521 -6 107
0 120 -2 143 -22 15 -12 30 -39 34 -61 14 -67 29 -128 42 -170 13 -47 78 -139
111 -157 15 -9 70 -13 182 -13 l161 0 73 50 c102 70 118 88 125 143 17 120 79
222 135 222 14 0 44 5 66 11 72 20 265 25 590 15 116 -4 259 -8 319 -10 92 -2
111 -6 122 -21 8 -10 14 -26 14 -34 1 -64 56 -166 125 -233 50 -48 127 -56
171 -17 11 11 23 17 26 13 11 -11 46 15 67 50 27 43 51 133 51 191 0 24 6 47
12 52 14 8 141 6 169 -2 17 -6 39 -66 39 -110 0 -29 34 -85 52 -85 6 0 21 -11
33 -24 29 -31 145 -48 284 -41 104 6 105 6 146 44 23 21 46 40 51 42 5 2 25
35 44 72 19 37 41 80 49 94 8 15 14 41 15 57 1 17 7 41 14 54 9 16 11 52 7
135 -4 61 -6 148 -6 192 1 44 -5 109 -12 144 -8 35 -13 82 -12 105 2 22 -1 46
-5 51 -5 6 -11 63 -14 128 -3 65 -8 122 -10 126 -3 4 -6 40 -7 81 -1 43 -8 82
-15 90 -9 11 -10 26 -4 53 7 33 5 42 -17 68 -17 20 -27 45 -28 70 -1 22 -10
48 -19 58 -9 9 -16 23 -16 31 0 17 -37 76 -66 105 -13 13 -24 31 -24 40 0 26
-30 63 -56 69 -18 5 -24 12 -20 22 3 9 1 35 -5 59 -9 35 -16 44 -42 52 -25 7
-33 15 -37 38 -7 40 -35 91 -55 99 -8 3 -24 25 -34 49 -11 24 -35 60 -55 79
-20 19 -36 44 -36 55 0 24 -18 43 -42 43 -10 0 -18 7 -18 16 0 9 -16 30 -35
47 -19 17 -35 37 -35 44 0 7 -9 13 -20 13 -13 0 -20 7 -20 20 0 11 -7 23 -16
27 -9 3 -13 12 -8 22 4 9 8 37 9 62 2 25 12 63 24 84 12 22 21 48 21 57 0 10
4 26 10 36 14 26 40 144 40 183 0 19 -5 40 -11 46 -7 7 -4 23 12 52 20 39 21
44 6 59 -15 15 -15 18 3 37 26 28 38 176 15 195 -13 10 -13 16 0 41 19 36 19
54 -1 74 -15 15 -15 17 0 34 9 10 13 20 10 24 -3 3 0 31 7 61 10 44 10 65 0
96 -7 22 -8 46 -4 53 23 37 6 112 -39 167 -16 19 -33 40 -38 47 -6 7 -15 24
-22 37 -6 14 -19 28 -29 31 -11 4 -22 17 -25 31 -3 13 -13 24 -21 24 -17 0
-77 57 -86 82 -4 11 -22 20 -47 24 -30 5 -40 11 -40 25 0 12 -7 19 -18 19 -10
0 -29 11 -42 25 -13 14 -30 25 -38 25 -7 0 -25 9 -39 20 -14 11 -33 20 -42 20
-9 0 -25 7 -35 15 -11 8 -34 15 -52 15 -18 0 -52 11 -75 25 -24 13 -64 27 -89
31 -25 4 -49 10 -55 14 -14 11 -65 14 -96 6 -16 -5 -44 -2 -70 7 -31 11 -51
12 -69 5 -25 -10 -284 -3 -302 8 -5 3 -14 1 -21 -4 -7 -6 -38 -9 -71 -7 -43 3
-68 11 -97 31 -30 20 -46 25 -71 20 -19 -3 -51 0 -73 8 l-40 14 -2 124 c-3
216 -2 212 -51 226 -51 15 -77 15 -90 0z m-1552 -475 c0 -14 -39 -18 -41 -5
-5 29 -6 58 -2 65 6 10 43 -42 43 -60z m771 15 c33 9 109 4 123 -7 11 -9 20
-10 35 -1 15 8 27 8 41 0 14 -8 32 -8 60 0 22 6 55 8 73 5 17 -3 59 -7 92 -10
93 -7 155 -17 155 -24 0 -27 -24 -132 -36 -158 -7 -17 -14 -38 -14 -46 0 -9
-4 -19 -10 -22 -5 -3 -10 -26 -10 -51 0 -37 6 -51 38 -87 72 -81 72 -80 26
-73 -38 7 -43 5 -68 -24 -14 -17 -26 -44 -26 -59 0 -26 3 -28 88 -46 48 -10
121 -21 162 -26 98 -10 120 -17 120 -40 0 -11 6 -21 13 -23 6 -2 27 -8 45 -14
34 -11 77 -1 94 23 11 14 10 83 -1 89 -10 6 -9 146 1 162 9 14 7 96 -3 109 -4
6 -9 24 -10 42 -3 23 2 36 20 50 26 21 22 43 -9 43 -24 0 -26 4 -34 71 l-7 56
361 -3 c198 -2 365 -6 370 -9 5 -3 18 -1 28 4 13 7 22 7 30 -1 6 -6 25 -12 44
-14 32 -3 93 -19 133 -34 69 -26 133 -56 151 -72 11 -10 23 -16 26 -13 3 3 11
-1 18 -10 7 -8 17 -15 23 -15 6 0 27 -8 48 -17 44 -21 73 -64 66 -99 -2 -13 8
-61 24 -107 15 -45 33 -118 39 -162 6 -44 14 -98 18 -120 3 -22 5 -60 5 -85
-1 -25 -2 -79 -3 -120 -1 -41 0 -118 3 -170 3 -80 -7 -352 -19 -455 -2 -16 -5
-57 -8 -90 -6 -79 -22 -148 -45 -193 -10 -21 -22 -53 -25 -72 -20 -98 -78
-216 -167 -335 -73 -99 -100 -122 -204 -178 l-70 -37 -65 16 c-54 13 -69 22
-87 49 -11 19 -24 48 -28 67 -4 18 -13 40 -20 48 -6 8 -18 30 -26 48 -8 17
-20 32 -26 32 -7 0 -13 8 -13 19 0 10 -10 31 -22 47 -20 25 -35 69 -55 169 -7
36 -31 56 -57 48 -17 -5 -18 -1 -12 46 4 33 3 51 -4 51 -5 0 -10 23 -10 54 0
35 -5 58 -15 66 -8 7 -15 23 -15 35 0 12 -9 34 -20 48 -13 17 -20 40 -20 70 0
29 -5 47 -14 50 -9 4 -16 31 -21 79 -7 67 -10 105 -14 226 -1 35 -5 45 -21 49
-23 6 -25 14 -9 30 17 17 3 43 -21 43 -34 0 -71 44 -64 77 4 22 -2 36 -31 66
-26 28 -41 37 -53 32 -16 -7 -36 -11 -71 -14 -18 -1 -8 -111 11 -126 8 -5 22
-27 31 -47 10 -21 22 -38 27 -38 5 0 19 -19 31 -42 17 -34 21 -59 21 -127 0
-55 4 -94 14 -112 8 -16 14 -45 14 -65 0 -21 11 -74 24 -118 16 -56 24 -106
24 -163 0 -87 17 -160 58 -248 13 -30 24 -56 24 -60 0 -26 88 -183 165 -295
100 -145 150 -198 205 -219 80 -31 268 -121 310 -149 14 -9 42 -27 62 -40 56
-35 98 -139 98 -240 -1 -110 -18 -142 -152 -275 -90 -90 -122 -115 -158 -126
-25 -7 -60 -26 -78 -42 -18 -16 -39 -29 -46 -29 -8 0 -47 -16 -87 -35 -41 -19
-126 -50 -189 -70 -63 -19 -131 -41 -150 -49 -19 -8 -58 -23 -87 -35 -28 -12
-67 -21 -85 -21 -18 0 -51 -9 -72 -21 -21 -11 -50 -19 -65 -18 -14 2 -44 -3
-65 -10 -27 -9 -64 -12 -116 -8 -87 7 -120 1 -120 -20 0 -12 -8 -13 -39 -8
-24 4 -42 2 -46 -4 -9 -15 -42 -14 -48 2 -3 9 -7 9 -21 -2 -12 -10 -32 -12
-79 -7 -34 4 -84 6 -112 5 -27 -1 -228 -3 -445 -3 -392 -1 -395 -1 -431 22
-20 12 -48 22 -62 22 -14 0 -29 5 -32 10 -3 6 -18 10 -33 10 -15 0 -48 11 -72
24 -110 58 -231 115 -262 121 -18 4 -50 22 -71 40 -21 18 -50 36 -63 39 -23 6
-73 41 -152 104 -18 15 -31 34 -29 42 3 11 -3 16 -17 17 -12 1 -15 -1 -8 -4 6
-3 12 -10 12 -16 0 -6 -13 2 -29 17 -27 25 -36 47 -62 149 -6 23 -18 59 -27
80 -11 27 -12 43 -5 60 5 12 6 33 2 47 -11 39 -10 211 2 297 11 82 30 136 85
245 47 94 103 324 134 552 6 38 17 80 25 92 8 13 15 32 15 43 0 11 7 40 15 65
14 41 14 48 -2 80 -16 35 -16 36 6 60 20 21 22 30 16 93 -4 52 -2 77 10 99 8
16 15 41 15 56 0 15 5 30 10 33 6 3 10 19 10 35 0 41 10 60 35 70 16 6 25 20
30 47 4 21 11 43 16 49 12 14 -5 150 -21 169 -20 24 -46 18 -84 -19 -27 -25
-36 -42 -36 -66 0 -17 -9 -43 -20 -57 -11 -14 -20 -35 -20 -47 0 -11 -8 -39
-19 -61 -52 -110 -64 -145 -69 -205 -2 -36 -9 -70 -14 -76 -4 -7 -8 -25 -8
-40 2 -91 -1 -142 -11 -178 -42 -159 -76 -264 -129 -396 -21 -52 -41 -115 -45
-140 -5 -26 -19 -59 -36 -80 -16 -19 -29 -40 -29 -47 0 -16 -60 -105 -69 -101
-3 2 -31 15 -61 29 -70 33 -143 98 -177 157 -14 26 -33 55 -41 64 -8 10 -18
34 -23 55 -11 54 -77 232 -98 269 -10 17 -24 64 -30 105 -7 41 -17 99 -23 129
-14 74 -13 710 2 865 16 165 47 337 67 380 13 27 26 38 55 46 22 5 47 19 56
30 9 10 28 19 42 19 14 0 45 9 69 20 24 11 53 20 66 20 12 0 28 7 35 15 7 8
23 15 37 15 13 0 39 6 57 14 18 7 62 17 97 20 35 4 87 12 116 17 29 6 124 12
213 13 l161 4 -6 -102 c-3 -55 -7 -128 -9 -161 -4 -75 11 -197 26 -206 28 -18
107 -19 145 -3 75 33 99 43 148 61 27 10 53 20 58 21 4 2 5 -8 1 -22 -12 -51
32 -71 90 -41 15 8 34 15 42 15 40 0 59 128 27 176 -11 18 -14 37 -9 71 4 34
2 51 -9 63 -10 11 -17 48 -21 113 l-6 97 24 0 c13 0 33 7 44 15 13 10 45 14
99 15 55 0 87 5 102 15 17 12 31 13 74 5 47 -9 55 -8 73 9 16 15 31 19 61 15
26 -3 48 1 60 10 18 13 21 13 26 -7 3 -12 12 -20 20 -19z m-737 -154 c3 -8 2
-12 -4 -9 -6 3 -10 10 -10 16 0 14 7 11 14 -7z m1580 -213 c6 -44 5 -52 -6
-44 -7 6 -32 14 -55 18 -37 6 -43 10 -43 31 0 19 8 26 48 37 26 8 48 14 48 13
1 0 4 -25 8 -55z m-1734 23 c0 -8 4 -14 9 -14 5 0 11 -10 13 -22 2 -18 10 -23
32 -23 46 0 40 -18 -11 -40 -26 -11 -51 -21 -55 -23 -4 -2 -7 30 -6 72 0 41 5
73 10 70 4 -3 8 -12 8 -20z m335 -204 c-3 -5 -12 -10 -18 -10 -7 0 -6 4 3 10
19 12 23 12 15 0z m1255 -3224 c0 -11 -19 -15 -25 -6 -3 5 1 10 9 10 9 0 16
-2 16 -4z"/>
<path d="M4170 4535 c-8 -8 -29 -27 -46 -42 -38 -34 -103 -200 -88 -224 2 -4
11 -52 18 -106 15 -103 20 -118 51 -169 18 -30 21 -31 111 -38 52 -3 103 -2
117 3 14 5 28 7 31 4 14 -15 123 31 157 66 33 34 36 43 41 108 3 45 1 78 -7
93 -7 13 -10 31 -8 41 3 9 -5 27 -16 38 -12 12 -21 28 -21 37 0 9 -19 36 -42
61 -24 25 -51 54 -60 64 -11 11 -31 19 -50 19 -17 0 -39 7 -49 16 -10 9 -32
19 -51 23 -18 5 -42 11 -53 14 -13 4 -26 1 -35 -8z m80 -416 c0 -10 -12 -11
-34 -3 -25 10 -19 22 9 16 14 -2 25 -8 25 -13z"/>
<path d="M2633 4483 c-17 -2 -37 -10 -43 -18 -6 -8 -18 -11 -26 -8 -15 6 -74
-45 -74 -64 0 -7 -7 -13 -15 -13 -27 0 -52 -36 -59 -83 -4 -26 -14 -50 -21
-55 -9 -4 -18 -36 -24 -75 -12 -81 5 -150 44 -187 14 -13 25 -30 25 -37 0 -17
53 -50 96 -57 18 -4 59 0 91 8 32 8 76 14 98 15 22 0 51 4 65 9 14 5 31 7 39
4 7 -2 24 7 38 22 13 14 30 26 38 26 8 0 16 6 16 13 2 21 5 31 14 51 5 11 4
26 -3 37 -8 13 -9 26 -2 44 6 15 10 44 10 66 0 51 -33 171 -57 204 -18 26
-127 85 -157 85 -8 0 -18 5 -21 10 -6 10 -12 10 -72 3z m152 -368 c-2 -42 -5
-45 -53 -62 -50 -17 -54 -16 -50 9 2 15 14 24 43 32 33 10 41 16 43 39 5 40
19 25 17 -18z"/>
<path d="M3006 4447 c-14 -10 -19 -33 -23 -112 -7 -140 16 -268 61 -339 54
-84 130 -136 159 -107 6 6 26 11 45 11 18 0 43 5 55 12 12 6 39 11 59 9 28 -2
40 2 50 18 7 12 20 21 29 21 9 0 22 7 30 16 7 8 26 21 43 28 28 11 32 10 55
-17 30 -35 77 -57 125 -57 19 0 38 -5 42 -11 4 -8 32 -10 80 -7 58 4 82 11
115 32 37 25 41 31 37 63 -3 28 0 38 19 50 24 16 32 66 14 101 -5 9 -16 33
-25 52 -9 19 -27 55 -41 79 -14 24 -25 54 -25 66 0 28 -30 55 -55 50 -11 -2
-22 -4 -25 -4 -12 -2 -40 -61 -40 -84 0 -13 9 -36 20 -50 11 -14 20 -31 20
-37 0 -7 7 -25 17 -40 14 -24 15 -34 3 -74 -14 -51 -6 -48 -124 -48 -60 0 -73
3 -87 21 -21 25 -59 123 -59 150 0 10 -8 29 -18 41 -15 18 -24 21 -54 15 -41
-8 -43 -12 -53 -94 -9 -66 -26 -84 -101 -105 -33 -10 -70 -23 -84 -29 -14 -7
-48 -11 -77 -9 -51 3 -52 4 -67 45 -23 64 -36 151 -36 248 0 77 -2 90 -19 99
-26 13 -43 13 -65 -3z"/>
<path d="M2031 3064 c0 -11 3 -14 6 -6 3 7 2 16 -1 19 -3 4 -6 -2 -5 -13z"/>
<path d="M6694 6279 c-10 -12 -18 -31 -16 -43 4 -34 -26 -96 -77 -156 -26 -30
-55 -66 -64 -80 -16 -23 -55 -51 -115 -82 -32 -16 -37 -51 -15 -105 15 -37 29
-52 66 -72 57 -31 144 -150 153 -211 2 -8 10 -40 18 -70 9 -30 16 -65 16 -78
0 -29 19 -36 74 -28 37 6 46 12 54 34 5 16 5 39 -1 59 -8 26 -7 37 5 50 23 27
28 51 18 78 -8 20 -5 28 17 44 17 14 23 26 19 37 -10 26 42 152 70 171 27 17
74 91 74 115 0 8 -11 20 -25 26 -14 7 -28 20 -31 29 -15 46 -40 82 -59 85 -11
2 -19 6 -17 11 4 11 -27 67 -38 67 -6 0 -10 17 -10 38 -1 27 -9 46 -30 70 -34
37 -59 41 -86 11z m61 -240 c4 -10 10 -19 15 -19 10 0 80 -96 80 -110 0 -6 -4
-10 -8 -10 -4 0 -13 -12 -20 -27 -21 -45 -49 -93 -67 -113 -9 -9 -20 -33 -26
-51 -16 -59 -23 -64 -54 -35 -15 14 -24 29 -21 35 9 14 -4 41 -20 41 -8 0 -14
7 -14 15 0 8 -23 32 -50 54 -50 39 -50 41 -31 58 44 41 73 63 84 63 11 0 28
31 41 75 7 23 55 54 73 47 7 -2 15 -12 18 -23z"/>
<path d="M7480 5304 c-16 -14 -30 -30 -30 -35 0 -4 -12 -34 -27 -66 -21 -46
-58 -87 -168 -195 -77 -75 -151 -148 -165 -161 -37 -38 -84 -97 -92 -118 -4
-11 -14 -19 -23 -19 -8 0 -15 -5 -15 -10 0 -6 -11 -16 -25 -22 -14 -6 -28 -22
-31 -35 -4 -13 -10 -23 -15 -23 -5 0 -9 -6 -9 -14 0 -8 -11 -27 -24 -43 -12
-15 -26 -48 -30 -73 -11 -67 -14 -210 -4 -216 4 -3 8 -15 8 -28 0 -27 29 -56
56 -56 11 0 25 -5 31 -11 7 -7 61 -12 145 -13 112 -1 137 2 158 17 13 9 36 17
51 17 15 0 32 7 39 15 24 29 44 13 46 -35 1 -25 -1 -49 -6 -55 -4 -5 -11 -35
-14 -65 -11 -115 -18 -155 -27 -165 -5 -5 -9 -17 -9 -27 0 -9 -15 -46 -34 -80
-19 -35 -37 -78 -41 -96 -4 -18 -13 -36 -20 -38 -7 -3 -28 -35 -47 -71 -33
-66 -101 -153 -120 -153 -5 0 -35 -15 -67 -33 -31 -19 -69 -38 -84 -43 -16 -5
-37 -24 -48 -41 l-20 -32 23 -14 c35 -23 146 -4 173 28 11 13 45 34 76 48 31
14 66 38 80 56 13 18 34 43 47 56 29 30 63 95 56 107 -3 5 13 27 36 48 40 37
41 40 31 75 -9 35 -8 39 30 76 39 38 39 39 39 116 0 61 5 88 21 118 36 67 52
212 27 243 -8 9 -8 16 0 24 7 7 12 29 12 50 l0 38 31 -19 c39 -24 74 -76 83
-122 8 -43 32 -67 111 -107 60 -30 61 -31 194 -27 156 5 171 12 171 80 0 22 5
46 10 51 6 6 11 40 12 75 0 35 5 76 10 91 8 21 6 40 -8 80 -10 29 -22 57 -26
63 -4 5 -8 18 -8 30 0 11 -9 34 -20 50 -11 17 -20 39 -20 50 0 11 -10 31 -21
45 -40 49 -69 100 -69 120 0 12 -9 24 -23 29 -34 13 -46 33 -51 86 -3 30 -11
52 -20 57 -9 5 -16 13 -16 18 0 5 -18 36 -40 70 -23 33 -38 65 -35 70 3 5 -3
18 -13 28 -10 10 -21 26 -25 35 -3 9 -24 27 -46 41 -21 14 -41 29 -42 34 -2 5
-25 19 -51 30 l-48 21 -30 -25z m90 -122 c0 -5 17 -27 38 -50 70 -78 111 -147
127 -216 3 -17 16 -43 27 -59 14 -19 17 -32 10 -39 -7 -7 -16 2 -28 28 -10 22
-39 62 -66 91 -26 28 -48 59 -48 68 0 11 -5 15 -14 12 -36 -14 -86 -18 -103
-9 -26 14 -93 -7 -93 -30 0 -9 -5 -20 -10 -23 -6 -3 -7 -17 -4 -30 10 -40 -11
-65 -57 -65 -22 0 -49 -5 -60 -11 -11 -5 -29 -9 -40 -7 -17 3 -13 11 31 56 29
28 56 52 62 52 12 0 88 62 88 73 0 4 18 25 40 47 21 21 48 57 60 80 18 36 40
53 40 32z m235 -381 c3 -5 1 -12 -5 -16 -5 -3 -10 1 -10 9 0 18 6 21 15 7z
m-513 -46 c0 -5 -5 -11 -11 -13 -6 -2 -11 4 -11 13 0 9 5 15 11 13 6 -2 11 -8
11 -13z m-206 -102 c-10 -10 -19 5 -10 18 6 11 8 11 12 0 2 -7 1 -15 -2 -18z
m818 -35 c-4 -5 3 -19 14 -31 46 -50 67 -180 54 -335 -6 -81 -18 -96 -61 -85
-33 9 -34 10 -38 68 -2 33 -4 74 -4 92 0 18 -3 35 -8 38 -5 2 -7 49 -5 102 7
176 15 212 40 178 7 -10 11 -22 8 -27z m-834 -4 c0 -9 -13 -33 -30 -54 -16
-21 -30 -41 -30 -45 0 -4 -11 -30 -25 -58 -35 -68 -31 -101 13 -105 34 -3 35
-3 117 91 22 25 44 21 55 -9 9 -24 14 -26 47 -19 51 9 128 85 120 117 -4 13
-2 30 3 38 7 12 13 9 31 -14 18 -23 27 -27 53 -22 63 13 69 12 85 -19 32 -62
63 -103 82 -108 11 -3 19 -14 19 -26 0 -27 -6 -26 -42 4 -16 14 -36 25 -43 25
-7 0 -21 8 -31 17 -15 16 -18 15 -36 -10 -13 -18 -29 -27 -46 -27 -36 0 -49
-10 -53 -40 -3 -19 -13 -27 -49 -37 -25 -7 -56 -19 -70 -26 -14 -8 -56 -20
-95 -27 -38 -7 -81 -17 -94 -22 -17 -6 -34 -3 -61 9 -38 18 -48 37 -65 115 -9
46 20 145 54 184 17 19 29 40 25 45 -9 16 16 39 42 39 15 0 24 -6 24 -16z
m166 -48 c-5 -28 -12 -36 -29 -36 -46 0 -50 15 -16 54 38 42 55 35 45 -18z
m494 19 c0 -8 -4 -15 -10 -15 -5 0 -10 7 -10 15 0 8 5 15 10 15 6 0 10 -7 10
-15z m11 -182 c1 -10 3 -29 4 -43 12 -103 11 -182 -1 -187 -19 -7 -54 16 -54
36 0 10 -6 24 -14 30 -8 7 -18 27 -21 44 -4 18 -9 40 -11 50 -4 12 0 17 16 17
13 0 28 13 41 35 23 38 38 45 40 18z"/>
<path d="M522 4730 c-18 -4 -36 -10 -39 -13 -3 -4 0 -27 6 -53 14 -55 10 -64
-13 -29 -18 28 -47 33 -66 10 -7 -9 -14 -57 -16 -121 -3 -62 -10 -117 -18
-132 -7 -15 -17 -43 -21 -62 -4 -19 -22 -67 -41 -106 -28 -61 -33 -82 -31
-136 2 -74 20 -102 92 -150 48 -32 51 -38 34 -55 -9 -9 -5 -23 15 -57 14 -24
26 -54 26 -66 0 -34 47 -117 80 -140 43 -31 106 -23 137 17 13 15 23 37 23 47
0 11 8 28 17 38 10 11 18 34 19 53 0 20 11 46 27 65 15 17 27 38 27 46 0 8 4
22 9 32 6 9 12 29 15 43 3 14 17 43 32 64 21 32 25 45 19 74 -4 20 -9 51 -10
69 -1 24 -9 37 -26 46 -33 17 -149 136 -149 153 0 8 -7 25 -16 38 -13 19 -14
31 -6 54 10 30 2 68 -26 118 -9 16 -9 29 -2 49 9 22 7 31 -8 48 -11 12 -25 31
-31 44 -6 12 -15 22 -19 21 -4 -1 -22 -5 -40 -9z m21 -412 c9 -5 17 -18 17
-28 0 -10 5 -22 10 -25 6 -3 10 -15 10 -26 0 -10 6 -19 14 -19 7 0 21 -11 30
-25 10 -15 22 -22 31 -19 10 4 15 0 15 -10 0 -9 8 -20 18 -23 39 -15 43 -66 9
-121 -13 -20 -32 -62 -41 -92 -23 -73 -57 -150 -68 -150 -10 0 -22 46 -14 58
3 5 -6 32 -19 61 -14 28 -25 55 -25 60 0 5 -7 11 -15 15 -8 3 -20 17 -25 32
-6 14 -19 28 -30 31 -11 3 -20 11 -20 18 0 7 -7 18 -15 25 -16 13 -21 90 -6
90 5 0 12 17 16 37 4 20 15 47 25 60 9 12 26 49 36 82 l19 60 6 -41 c3 -22 13
-44 22 -50z"/>
</g>
</svg>
